# Blender v2.66 (sub 1) OBJ File: 'hammer.blend'
# www.blender.org
mtllib hammer.mtl
o Cube_Cube.001
v -0.989544 -0.098033 0.098033
v -0.776060 -0.125000 0.098033
v -0.776060 -0.098033 0.125000
v -0.989544 -0.098033 -0.098033
v -0.776060 -0.098033 -0.125000
v -0.776060 -0.125000 -0.098033
v 0.776060 -0.098033 -0.125000
v 0.776060 -0.125000 -0.098033
v 0.776060 -0.098033 0.125000
v 0.776060 -0.125000 0.098033
v -0.776060 0.098033 0.125000
v -0.776060 0.125000 0.098033
v -0.989544 0.098033 0.098033
v -0.989544 0.098033 -0.098033
v -0.776060 0.125000 -0.098033
v -0.776060 0.098033 -0.125000
v 0.776060 0.098033 -0.125000
v 0.776060 0.125000 -0.098033
v 0.776060 0.125000 0.098033
v 0.776060 0.098033 0.125000
v 0.876799 -0.098033 -0.112275
v 0.989544 -0.077891 -0.077891
v 0.876799 -0.112275 -0.098033
v 0.876799 -0.112275 0.098033
v 0.989544 -0.077891 0.077891
v 0.876799 -0.098033 0.112275
v 0.876799 0.112275 -0.098033
v 0.989544 0.077891 -0.077891
v 0.876799 0.098033 -0.112275
v 0.876799 0.098033 0.112275
v 0.989544 0.077891 0.077891
v 0.876799 0.112275 0.098033
v -0.480638 0.125000 -0.098033
v -0.480638 0.098033 -0.125000
v -0.480638 -0.125000 -0.098033
v -0.480638 -0.098033 -0.125000
v -0.480638 0.125000 0.098033
v -0.480638 0.098033 0.125000
v -0.480638 -0.125000 0.098033
v -0.480638 -0.098033 0.125000
v -0.628349 0.125000 -0.098033
v -0.628349 -0.098033 -0.125000
v -0.628349 0.098033 0.125000
v -0.628349 -0.125000 0.098033
v -0.628349 0.098033 -0.125000
v -0.628349 -0.125000 -0.098033
v -0.628349 0.125000 0.098033
v -0.628349 -0.098033 0.125000
v -1.010456 -0.070294 0.070294
v -1.010456 -0.070294 -0.070294
v -1.010456 0.070294 0.070294
v -1.010456 0.070294 -0.070294
v -0.467286 -0.382993 0.255958
v -0.467286 0.402535 0.255958
v -0.860049 0.402535 0.255958
v -0.860049 -0.382993 0.255958
v -0.413667 0.402535 0.202340
v -0.413667 -0.382993 0.202340
v -0.467286 0.509771 0.202340
v -0.860049 0.509771 0.202340
v -0.913667 0.402535 0.202340
v -0.913667 -0.382993 0.202340
v -0.860049 -0.490229 0.202340
v -0.467286 -0.490229 0.202340
v -0.413667 -0.125000 0.098033
v -0.413667 -0.382993 -0.190424
v -0.413667 -0.125000 -0.098033
v -0.413667 -0.098033 0.125000
v -0.413667 -0.098033 -0.125000
v -0.413667 0.402535 -0.190424
v -0.413667 0.098033 0.125000
v -0.413667 0.125000 0.098033
v -0.413667 0.098033 -0.125000
v -0.413667 0.125000 -0.098033
v -0.467286 0.509771 -0.190424
v -0.860049 0.509771 -0.190424
v -0.913667 -0.098033 0.107617
v -0.913667 -0.107617 0.098033
v -0.913667 -0.382993 -0.190424
v -0.913667 -0.107617 -0.098033
v -0.913667 0.098033 0.107617
v -0.913667 0.402535 -0.190424
v -0.913667 0.107617 0.098033
v -0.913667 -0.098033 -0.107617
v -0.913667 0.107617 -0.098033
v -0.913667 0.098033 -0.107617
v -0.860049 -0.490229 -0.190424
v -0.467286 -0.490229 -0.190424
v -0.467286 0.402535 -0.244042
v -0.467286 -0.382993 -0.244042
v -0.860049 0.402535 -0.244042
v -0.860049 -0.382993 -0.244042
v -0.776060 0.098033 0.125000
v -0.628349 0.098033 0.125000
v -0.628349 -0.098033 0.125000
v -0.776060 -0.098033 0.125000
v -0.480638 0.098033 0.125000
v -0.480638 -0.098033 0.125000
v -0.776060 0.125000 0.098033
v -0.628349 0.125000 0.098033
v -0.628349 -0.125000 0.098033
v -0.776060 -0.125000 0.098033
v -0.480638 0.125000 0.098033
v -0.480638 -0.125000 0.098033
v -0.628349 0.125000 -0.098033
v -0.776060 0.125000 -0.098033
v -0.776060 -0.125000 -0.098033
v -0.628349 -0.125000 -0.098033
v -0.480638 0.125000 -0.098033
v -0.480638 -0.125000 -0.098033
v -0.776060 0.098033 -0.125000
v -0.628349 0.098033 -0.125000
v -0.628349 -0.098033 -0.125000
v -0.776060 -0.098033 -0.125000
v -0.480638 0.098033 -0.125000
v -0.480638 -0.098033 -0.125000
vt 0.556409 0.232651
vt 0.555781 0.027942
vt 0.760341 0.027315
vt 0.294784 0.727793
vt 0.366962 0.679417
vt 0.374033 0.693451
vt 0.294156 0.523084
vt 0.366648 0.577228
vt 0.425127 0.693294
vt 0.499492 0.727165
vt 0.498864 0.522456
vt 0.373633 0.563151
vt 0.432112 0.679217
vt 0.431798 0.577028
vt 0.424727 0.562994
vt 0.704132 0.494508
vt 0.499492 0.493881
vt 0.500120 0.289172
vt 0.704052 0.550405
vt 0.704680 0.755114
vt 0.499492 0.551033
vt 0.337051 0.153797
vt 0.342055 0.156279
vt 0.294136 0.233283
vt 0.293508 0.028574
vt 0.336894 0.102702
vt 0.444244 0.155966
vt 0.341882 0.100189
vt 0.449232 0.153453
vt 0.498845 0.232655
vt 0.449075 0.102358
vt 0.498217 0.027946
vt 0.444072 0.099875
vt 0.498131 0.000000
vt 0.526162 0.027860
vt 0.265562 0.028660
vt 0.293422 0.000628
vt 0.733671 0.755025
vt 0.705831 0.783057
vt 0.527418 0.232740
vt 0.555430 0.260600
vt 0.526790 0.232569
vt 0.498930 0.260600
vt 0.294222 0.261228
vt 0.266190 0.233368
vt 0.705032 0.522456
vt 0.733043 0.550317
vt 0.526790 0.028031
vt 0.554630 0.000000
vt 0.704773 0.522456
vt 0.498852 0.521829
vt 0.294853 0.494508
vt 0.704760 0.289800
vt 0.733423 0.289888
vt 0.732795 0.494596
vt 0.266190 0.494596
vt 0.265562 0.289888
vt 0.500933 0.261228
vt 0.705572 0.261856
vt 0.294225 0.289800
vt 0.293413 0.261856
vt 0.498052 0.261228
vt 0.760969 0.232024
vt 0.500121 0.755742
vt 0.500133 0.521829
vt 0.294212 0.522456
vt 0.498864 0.289172
vt 0.761545 0.187739
vt 0.761309 0.110808
vt 0.812403 0.110651
vt 0.116245 0.111517
vt 0.014056 0.111831
vt 0.013895 0.059257
vt 0.147072 0.843249
vt 0.249261 0.843562
vt 0.249025 0.920524
vt 0.817215 0.766779
vt 0.815207 0.112264
vt 0.868309 0.766623
vt 0.368613 0.829982
vt 0.317518 0.830139
vt 0.361340 0.815547
vt 0.119067 1.031258
vt 0.118726 0.920210
vt 0.132781 0.919984
vt 0.016878 1.031571
vt 0.002481 0.920384
vt 0.016537 0.920524
vt 0.276608 0.809112
vt 0.276359 0.727918
vt 0.316956 0.727793
vt 0.763789 0.919186
vt 0.814883 0.919030
vt 0.815045 0.971749
vt 0.146836 0.920210
vt 0.146495 1.031258
vt 0.248685 1.031571
vt 0.263081 0.920384
vt 0.142056 0.058824
vt 0.149478 0.058944
vt 0.149317 0.111517
vt 0.817687 0.920642
vt 0.868781 0.920485
vt 0.818026 1.031293
vt 0.812064 0.000000
vt 0.249497 0.766601
vt 0.251506 0.111831
vt 0.263553 0.766462
vt 0.000000 0.111691
vt 0.006471 0.059183
vt 0.016301 0.843562
vt 0.002245 0.843423
vt 0.265562 0.111691
vt 0.251667 0.059257
vt 0.116084 0.058944
vt 0.123507 0.058824
vt 0.130300 0.111291
vt 0.118254 0.766288
vt 0.016065 0.766601
vt 0.024211 0.000249
vt 0.105405 0.000000
vt 0.241351 0.000249
vt 0.259091 0.059183
vt 0.160157 0.000000
vt 0.820111 0.000125
vt 0.860708 0.000000
vt 0.866139 0.059387
vt 0.809978 1.031168
vt 0.769381 1.031293
vt 0.763950 0.971906
vt 0.815045 0.059544
vt 0.866301 0.112107
vt 0.761781 0.264670
vt 0.812875 0.264514
vt 0.817451 0.843711
vt 0.868545 0.843554
vt 0.263317 0.843423
vt 0.147308 0.766288
vt 0.133253 0.766062
vt 0.118490 0.843249
vt 0.132309 0.766062
vt 0.132545 0.843023
vt 0.002009 0.766462
vt 0.133017 0.843023
vt 0.812639 0.187582
vt 0.324703 0.815659
vt 0.324478 0.742385
vt 0.031368 1.042234
vt 0.160920 1.042010
vt 0.317205 0.727950
vt 0.368300 0.727793
vt 0.920558 0.372835
vt 0.920794 0.449766
vt 0.869700 0.449923
vt 0.985944 0.188816
vt 0.883755 0.189129
vt 0.883519 0.112168
vt 0.869921 0.782850
vt 0.869814 0.747970
vt 0.920908 0.747813
vt 0.382449 0.988423
vt 0.377453 0.988473
vt 0.368613 0.916748
vt 0.484638 0.988737
vt 0.484858 0.916922
vt 0.498913 0.917148
vt 0.986164 0.260630
vt 1.000000 0.188955
vt 0.883975 0.260943
vt 0.878980 0.261024
vt 0.869700 0.189355
vt 0.920215 0.521937
vt 0.920436 0.593951
vt 0.869342 0.594108
vt 0.382669 0.916609
vt 0.869921 0.521937
vt 0.883175 0.000313
vt 0.883283 0.035207
vt 0.869228 0.035433
vt 0.499149 0.840187
vt 0.999764 0.111994
vt 0.985708 0.111854
vt 0.383248 0.727793
vt 0.383141 0.762687
vt 0.369085 0.762826
vt 0.485438 0.728107
vt 0.485330 0.763000
vt 0.920215 0.261024
vt 0.920322 0.295904
vt 0.869228 0.296060
vt 0.985365 0.000000
vt 0.985472 0.034893
vt 0.920672 0.670882
vt 0.869464 0.112394
vt 0.499492 0.728332
vt 0.499385 0.763226
vt 0.999421 0.000140
vt 0.999528 0.035033
vt 0.368849 0.839787
vt 0.382905 0.839648
vt 0.485094 0.839961
vt 0.869578 0.671039
vt 0.317205 0.808987
vt 0.135262 0.111291
vt 0.869121 1.031136
vt 0.760969 0.000157
vt 0.361115 0.742273
vt 0.104642 1.042010
vt 0.234194 1.042234
vt 0.869464 0.372991
vt 0.921015 0.782693
vt 0.489633 0.988817
vt 0.991160 0.260680
vt 0.869121 0.522093
vt 0.921015 0.521780
vt 0.869121 0.000539
vt 0.369192 0.727933
vt 0.869121 0.261180
vn -0.000000 0.000000 1.000000
vn 1.000000 -0.000000 0.000000
vn -0.000000 1.000000 0.000000
vn 0.000000 0.000000 -1.000000
vn -1.000000 -0.000000 0.000000
vn -0.666667 -0.333333 0.666667
vn -0.666667 -0.333333 -0.666667
vn 0.666667 -0.333333 -0.666667
vn 0.666667 -0.333333 0.666667
vn -0.666667 0.333333 0.666667
vn -0.666667 0.333333 -0.666667
vn 0.666667 0.333333 -0.666667
vn 0.666667 0.333333 0.666667
vn -0.894427 0.447214 0.000000
vn -0.707107 0.000000 -0.707107
vn -0.894427 -0.447214 0.000000
vn -0.707107 0.000000 0.707107
vn 0.000000 0.447214 -0.894427
vn 0.707107 0.000000 -0.707107
vn 0.000000 -0.447214 -0.894427
vn 0.894427 0.447214 -0.000000
vn 0.707107 0.000000 0.707107
vn 0.894427 -0.447214 0.000000
vn 0.000000 0.447214 0.894427
vn 0.000000 -0.447214 0.894427
vn -0.000000 -1.000000 -0.000000
vn 0.000000 0.382672 0.923856
vn -0.057497 0.376934 0.924436
vn -0.057497 -0.376934 0.924436
vn 0.057497 -0.924436 0.376934
vn 0.057497 -0.924436 -0.376934
vn 0.218757 -0.897275 -0.383435
vn 0.000000 0.923856 0.382672
vn 0.000000 0.923856 -0.382672
vn -0.057497 0.924436 -0.376934
vn 0.000000 0.382672 -0.923856
vn 0.057497 0.376934 -0.924436
vn 0.000000 -0.382672 -0.923856
vn -0.505448 -0.610096 0.610096
vn -0.505448 0.610096 0.610096
vn -0.937651 -0.245735 0.245735
vn -0.057497 -0.924436 0.376934
vn -0.505448 -0.610096 -0.610096
vn -0.057497 -0.376934 -0.924436
vn -0.057497 -0.924436 -0.376934
vn 0.724326 0.487503 -0.487503
vn 0.724326 0.487503 0.487503
vn 0.724326 -0.487503 0.487503
vn 0.057497 0.376934 0.924436
vn 0.057497 -0.376934 0.924436
vn 0.218757 -0.383435 0.897275
vn -0.057497 0.924436 0.376934
vn -0.505448 0.610096 -0.610096
vn -0.057497 0.376934 -0.924436
vn 0.218757 0.383435 0.897275
vn 0.218757 0.897275 0.383435
vn 0.057497 0.924436 0.376934
vn 0.057497 0.924436 -0.376934
vn 0.057497 -0.376934 -0.924436
vn 0.218757 -0.383435 -0.897275
vn 0.000000 -0.923856 -0.382672
vn 0.218757 0.897275 -0.383435
vn 0.218757 -0.897275 0.383435
vn 0.000000 -0.923856 0.382672
vn 0.724326 -0.487503 -0.487503
vn 0.218757 0.383435 -0.897275
vn 0.000000 -0.382672 0.923856
vn -0.937651 0.245735 0.245735
vn -0.937651 0.245735 -0.245735
vn -0.937651 -0.245735 -0.245735
vn 0.804163 -0.227454 0.549120
vn -0.770135 0.586261 -0.251259
vn -0.770135 0.251259 -0.586261
vn -0.770135 0.586261 0.251259
vn -0.770135 -0.586261 -0.251259
vn -0.770135 -0.586261 0.251259
vn -0.770135 -0.251259 0.586261
vn -0.770135 0.251259 0.586261
vn -0.770135 -0.251259 -0.586261
vn 0.804163 -0.549120 0.227454
vn 0.804163 0.549120 -0.227454
vn 0.804163 0.549120 0.227454
vn 0.804163 0.227454 -0.549120
vn 0.804163 -0.549120 -0.227454
vn 0.804163 0.227454 0.549120
vn 0.804163 -0.227454 -0.549120
usemtl Rubber.001
s off
f 53/1/1 54/2/1 55/3/1
f 70/4/2 74/5/2 73/6/2
f 70/4/2 57/7/2 72/8/2
f 69/9/2 66/10/2 73/6/2
f 57/7/2 58/11/2 71/12/2
f 69/9/2 67/13/2 66/10/2
f 57/7/2 71/12/2 72/8/2
f 58/11/2 65/14/2 68/15/2
f 65/14/2 58/11/2 66/10/2
f 75/16/3 76/17/3 60/18/3
f 89/19/4 90/20/4 91/21/4
f 86/22/5 85/23/5 82/24/5
f 82/24/5 79/25/5 84/26/5
f 85/23/5 83/27/5 82/24/5
f 79/25/5 80/28/5 84/26/5
f 81/29/5 61/30/5 83/27/5
f 77/31/5 62/32/5 61/30/5
f 79/25/5 62/32/5 80/28/5
f 62/32/5 77/31/5 78/33/5
f 62/32/6 63/34/6 56/35/6
f 79/25/7 92/36/7 87/37/7
f 90/20/8 66/38/8 88/39/8
f 58/40/9 53/1/9 64/41/9
f 55/42/10 60/43/10 61/30/10
f 82/24/11 76/44/11 91/45/11
f 89/19/12 75/46/12 70/47/12
f 57/48/13 59/49/13 54/2/13
f 76/44/14 82/24/14 60/43/14
f 92/36/15 79/25/15 91/45/15
f 79/25/16 87/37/16 62/32/16
f 62/32/17 56/35/17 61/30/17
f 75/16/18 89/50/18 76/17/18
f 66/38/19 90/20/19 89/19/19
f 87/17/20 92/51/20 88/52/20
f 59/53/21 57/54/21 70/55/21
f 53/1/22 58/40/22 57/48/22
f 88/52/23 66/56/23 58/57/23
f 60/18/24 55/58/24 54/59/24
f 64/60/25 53/61/25 56/62/25
f 87/17/26 88/52/26 64/60/26
f 56/63/1 53/1/1 55/3/1
f 74/5/2 70/4/2 72/8/2
f 66/10/2 70/4/2 73/6/2
f 58/11/2 68/15/2 71/12/2
f 67/13/2 65/14/2 66/10/2
f 59/53/3 75/16/3 60/18/3
f 90/20/4 92/64/4 91/21/4
f 86/22/5 82/24/5 84/26/5
f 61/30/5 82/24/5 83/27/5
f 81/29/5 77/31/5 61/30/5
f 62/32/5 78/33/5 80/28/5
f 82/24/14 61/30/14 60/43/14
f 79/25/15 82/24/15 91/45/15
f 87/37/16 63/34/16 62/32/16
f 56/35/17 55/42/17 61/30/17
f 89/50/18 91/65/18 76/17/18
f 70/47/19 66/38/19 89/19/19
f 92/51/20 90/66/20 88/52/20
f 75/16/21 59/53/21 70/55/21
f 54/2/22 53/1/22 57/48/22
f 64/60/23 88/52/23 58/57/23
f 59/53/24 60/18/24 54/59/24
f 63/67/25 64/60/25 56/62/25
f 63/67/26 87/17/26 64/60/26
usemtl Wood
s 1
f 43/68/27 11/69/28 3/70/29
f 10/71/30 8/72/31 23/73/32
f 47/74/33 41/75/34 15/76/35
f 34/77/36 17/78/37 36/79/38
f 1/80/39 13/81/40 49/82/41
f 1/83/39 2/84/42 3/85/29
f 4/86/43 5/87/44 6/88/45
f 28/89/46 31/90/47 25/91/48
f 20/92/49 9/93/50 26/94/51
f 11/85/28 12/95/52 13/96/40
f 14/97/53 15/76/35 16/98/54
f 30/99/55 32/100/56 19/101/57
f 12/95/52 15/76/35 13/96/40
f 16/102/54 5/103/44 14/104/53
f 6/88/45 2/84/42 4/86/43
f 3/70/29 11/69/28 1/105/39
f 33/106/34 18/107/58 34/108/36
f 7/109/59 21/110/60 23/73/32
f 46/111/61 6/88/45 42/112/38
f 17/113/37 18/107/58 27/114/62
f 18/107/58 19/101/57 32/100/56
f 24/115/63 26/116/51 9/117/50
f 47/74/33 12/95/52 11/85/28
f 39/118/64 10/71/30 9/117/50
f 39/118/64 35/119/61 8/72/31
f 21/110/60 22/120/65 23/73/32
f 24/115/63 25/121/48 26/116/51
f 27/114/62 28/122/46 29/123/66
f 30/99/55 31/124/47 32/100/56
f 28/125/46 22/126/65 21/127/60
f 31/124/47 28/122/46 27/114/62
f 25/128/48 31/129/47 30/130/55
f 22/120/65 25/121/48 24/115/63
f 29/131/66 21/127/60 7/132/59
f 20/92/49 38/133/27 40/134/67
f 19/101/57 18/107/58 33/106/34
f 45/135/36 34/77/36 42/136/38
f 41/75/34 33/106/34 45/137/36
f 8/72/31 35/119/61 7/109/59
f 19/101/57 37/138/33 38/139/27
f 44/140/64 39/118/64 40/141/67
f 44/140/64 46/111/61 35/119/61
f 2/84/42 44/140/64 48/142/67
f 37/138/33 33/106/34 41/75/34
f 16/102/54 45/135/36 5/103/44
f 35/119/61 46/111/61 36/143/38
f 37/138/33 47/74/33 43/144/27
f 38/133/27 43/68/27 48/145/67
f 2/84/42 6/88/45 46/111/61
f 15/76/35 41/75/34 16/98/54
f 51/146/68 52/147/69 49/82/41
f 4/86/43 1/83/39 50/148/70
f 13/96/40 14/97/53 51/149/68
f 14/150/53 4/151/43 52/147/69
f 95/152/36 96/153/37 93/154/59
f 99/155/31 106/156/30 105/157/64
f 73/158/71 115/159/67 116/160/27
f 78/161/72 77/162/73 96/163/37
f 80/164/74 107/165/57 114/166/49
f 83/167/75 99/155/31 93/168/59
f 85/169/76 86/170/77 111/171/50
f 85/169/76 106/156/30 99/155/31
f 84/172/78 114/173/49 111/174/50
f 78/161/72 102/175/58 107/165/57
f 81/176/79 93/154/59 96/153/37
f 74/177/80 109/178/64 115/179/67
f 113/180/27 114/166/49 107/165/57
f 94/181/38 93/168/59 100/182/61
f 65/183/81 104/184/34 98/185/36
f 67/186/82 110/187/33 104/184/34
f 68/188/83 98/189/36 97/190/38
f 72/191/84 103/192/61 109/178/64
f 113/193/27 116/160/27 115/159/67
f 112/194/67 115/179/67 109/178/64
f 69/195/85 116/196/27 110/187/33
f 71/197/86 97/198/38 72/191/84
f 95/199/36 98/185/36 101/200/34
f 104/184/34 110/187/33 108/201/33
f 96/163/37 95/199/36 102/175/58
f 100/182/61 105/157/64 109/178/64
f 114/173/49 113/193/27 112/202/67
f 116/196/27 113/180/27 108/201/33
f 97/198/38 94/181/38 103/192/61
f 98/189/36 95/152/36 97/190/38
f 101/200/34 108/201/33 107/165/57
f 111/171/50 112/194/67 105/157/64
f 48/145/67 43/68/27 3/70/29
f 24/115/63 10/71/30 23/73/32
f 12/95/52 47/74/33 15/76/35
f 17/78/37 7/132/59 36/79/38
f 13/81/40 51/146/68 49/82/41
f 22/203/65 28/89/46 25/91/48
f 30/130/55 20/92/49 26/94/51
f 20/204/49 30/99/55 19/101/57
f 15/76/35 14/97/53 13/96/40
f 5/103/44 4/205/43 14/104/53
f 2/84/42 1/83/39 4/86/43
f 11/69/28 13/206/40 1/105/39
f 18/107/58 17/113/37 34/108/36
f 8/72/31 7/109/59 23/73/32
f 6/88/45 5/87/44 42/112/38
f 29/123/66 17/113/37 27/114/62
f 27/114/62 18/107/58 32/100/56
f 10/71/30 24/115/63 9/117/50
f 43/144/27 47/74/33 11/85/28
f 40/141/67 39/118/64 9/117/50
f 10/71/30 39/118/64 8/72/31
f 29/131/66 28/125/46 21/127/60
f 32/100/56 31/124/47 27/114/62
f 26/94/51 25/128/48 30/130/55
f 23/73/32 22/120/65 24/115/63
f 17/78/37 29/131/66 7/132/59
f 9/93/50 20/92/49 40/134/67
f 37/138/33 19/101/57 33/106/34
f 34/77/36 36/79/38 42/136/38
f 33/106/34 34/108/36 45/137/36
f 35/119/61 36/143/38 7/109/59
f 20/204/49 19/101/57 38/139/27
f 48/142/67 44/140/64 40/141/67
f 39/118/64 44/140/64 35/119/61
f 3/85/29 2/84/42 48/142/67
f 47/74/33 37/138/33 41/75/34
f 45/135/36 42/136/38 5/103/44
f 46/111/61 42/112/38 36/143/38
f 38/139/27 37/138/33 43/144/27
f 40/134/67 38/133/27 48/145/67
f 44/140/64 2/84/42 46/111/61
f 41/75/34 45/137/36 16/98/54
f 52/147/69 50/207/70 49/82/41
f 1/83/39 49/208/41 50/148/70
f 14/97/53 52/209/69 51/149/68
f 4/151/43 50/207/70 52/147/69
f 94/210/38 95/152/36 93/154/59
f 100/182/61 99/155/31 105/157/64
f 69/211/85 73/158/71 116/160/27
f 102/175/58 78/161/72 96/163/37
f 84/212/78 80/164/74 114/166/49
f 81/213/79 83/167/75 93/168/59
f 106/156/30 85/169/76 111/171/50
f 83/167/75 85/169/76 99/155/31
f 86/214/77 84/172/78 111/174/50
f 80/164/74 78/161/72 107/165/57
f 77/215/73 81/176/79 96/153/37
f 73/216/71 74/177/80 115/179/67
f 108/201/33 113/180/27 107/165/57
f 93/168/59 99/155/31 100/182/61
f 68/217/83 65/183/81 98/185/36
f 65/183/81 67/186/82 104/184/34
f 71/218/86 68/188/83 97/190/38
f 74/177/80 72/191/84 109/178/64
f 112/202/67 113/193/27 115/159/67
f 105/157/64 112/194/67 109/178/64
f 67/186/82 69/195/85 110/187/33
f 97/198/38 103/192/61 72/191/84
f 98/185/36 104/184/34 101/200/34
f 101/200/34 104/184/34 108/201/33
f 95/199/36 101/200/34 102/175/58
f 103/192/61 100/182/61 109/178/64
f 111/174/50 114/173/49 112/202/67
f 110/187/33 116/196/27 108/201/33
f 94/181/38 100/182/61 103/192/61
f 95/152/36 94/210/38 97/190/38
f 102/175/58 101/200/34 107/165/57
f 106/156/30 111/171/50 105/157/64
